<svg width="25" height="21" viewBox="0 0 25 21" fill="currentColor" xmlns="http://www.w3.org/2000/svg">
<path d="M18.142 0.262544C17.8909 0.416355 17.8008 0.576575 17.8008 0.858562C17.8008 1.14055 17.9231 1.30718 18.2965 1.52508C18.9339 1.89679 20.1184 2.8517 20.7429 3.49258C22.0756 4.87047 22.9318 6.46626 23.3696 8.37608C23.5885 9.30536 23.6593 10.9076 23.537 11.8945C23.2601 14.0671 22.2816 16.0859 20.73 17.6881C20.1313 18.3097 18.6828 19.4697 18.2064 19.7132C17.7622 19.9376 17.6592 20.4246 17.9811 20.7835C18.2579 21.0911 18.554 21.0719 19.1592 20.7194C21.1743 19.5338 22.7644 17.8291 23.8138 15.727C24.5606 14.2337 24.934 12.7277 24.9919 10.9716C25.0306 9.68989 24.934 8.80547 24.625 7.61344C23.8653 4.65898 21.8695 2.04419 19.1849 0.474034C18.612 0.134368 18.4124 0.0959153 18.142 0.262544Z" fill="#72736e"/>
<path d="M13.0947 0.973917C13.0046 0.999552 12.3415 1.42253 11.614 1.9096C10.8929 2.40308 9.91437 3.05678 9.45084 3.37722C8.98087 3.69125 8.02806 4.33854 7.33921 4.79997L6.09026 5.65234H4.25545C3.1417 5.65234 2.28546 5.67798 2.07944 5.72284C1.29402 5.88947 0.560097 6.45985 0.206013 7.18404L0 7.60703V10.5871V13.5672L0.206013 13.9902C0.469967 14.5221 0.984999 15.0092 1.55797 15.2848L1.99575 15.4898L4.04944 15.5091L6.10313 15.5283L8.62035 17.233C10.0045 18.1751 11.5625 19.2262 12.0839 19.5787C12.8758 20.117 13.0689 20.2195 13.2621 20.2131C13.5582 20.2003 13.7192 20.1106 13.8415 19.8799C13.9252 19.7197 13.9381 18.5853 13.9381 10.5743C13.9381 1.59557 13.9381 1.44817 13.8093 1.24309C13.7385 1.13414 13.6741 1.038 13.6677 1.038C13.6548 1.038 13.5582 1.01237 13.4552 0.986734C13.3458 0.95469 13.1848 0.948282 13.0947 0.973917ZM12.5732 14.426L12.5539 18.2713L9.78561 16.3935L7.01731 14.5221V10.5935V6.65852L8.43365 5.6972C9.21264 5.17168 10.4616 4.32572 11.2019 3.81942L12.5539 2.90937L12.5732 6.74825C12.5797 8.85674 12.5797 12.3175 12.5732 14.426ZM5.63316 10.5935V14.1825L3.94 14.1632L2.24039 14.144L1.93137 13.9517C1.72536 13.8236 1.57085 13.6633 1.46784 13.4711L1.31333 13.1891L1.33265 10.5166L1.35196 7.85056L1.52578 7.60062C1.70604 7.34426 1.97 7.152 2.27258 7.06228C2.36915 7.03023 3.16101 7.0046 4.043 7.0046L5.63316 6.99819V10.5935Z" fill="#72736e"/>
<path d="M16.6613 3.01832C16.3845 3.19136 16.3008 3.37081 16.3394 3.69125C16.378 3.98605 16.3973 4.00528 17.2858 4.57566C18.9081 5.6267 20.0734 7.38912 20.4082 9.29895C20.5434 10.0616 20.5305 11.3177 20.3824 12.0291C19.9511 14.0799 18.715 15.7911 16.8802 16.8741C16.6162 17.0344 16.4167 17.1946 16.378 17.2907C16.275 17.5663 16.3137 17.8098 16.481 18.0085C16.7321 18.3033 16.9381 18.3225 17.4918 18.079C18.8373 17.4894 20.3824 15.8616 21.1421 14.2337C22.2494 11.8496 22.2043 9.02337 21.0198 6.67134C20.3052 5.26781 18.8759 3.77456 17.6721 3.17854C17.0733 2.89015 16.9188 2.86451 16.6613 3.01832Z" fill="#72736e"/>
<path d="M15.2321 5.6267C15.0003 5.79333 14.8844 6.133 14.9681 6.39576C15.0261 6.56879 15.1613 6.69056 15.5797 6.96614C18.2386 8.71574 18.245 12.4585 15.5862 14.2017C15.0067 14.5798 14.8716 14.7785 14.9488 15.1438C14.9939 15.3937 15.3093 15.6501 15.5604 15.6501C16.0175 15.6501 17.0411 14.9131 17.6656 14.144C19.23 12.2085 19.3395 9.42071 17.9424 7.40835C17.4274 6.67134 16.6999 6.00482 16.0626 5.68438C15.6956 5.49852 15.4445 5.4793 15.2321 5.6267Z" fill="#72736e"/>
</svg>
